<?xml version="1.0" standalone="no"?>
<!DOCTYPE svg PUBLIC "-//W3C//DTD SVG 20010904//EN"
 "http://www.w3.org/TR/2001/REC-SVG-20010904/DTD/svg10.dtd">
<svg version="1.0" xmlns="http://www.w3.org/2000/svg"
 width="915.000000pt" height="1024.000000pt" viewBox="0 0 915.000000 1024.000000"
 preserveAspectRatio="xMidYMid meet">
<metadata>
Created by potrace 1.15, written by Peter Selinger 2001-2017
</metadata>
<g transform="translate(0.000000,1024.000000) scale(0.100000,-0.100000)"
fill="#000000" stroke="none">
<path d="M8072 10183 c-43 -21 -99 -85 -183 -210 -38 -56 -106 -145 -151 -198
-46 -53 -108 -133 -138 -178 -56 -82 -88 -112 -243 -225 -48 -34 -99 -82 -115
-105 -16 -23 -69 -136 -117 -252 -48 -115 -121 -277 -161 -360 -75 -155 -281
-508 -308 -528 -24 -18 -103 -163 -137 -251 -62 -160 -24 -170 258 -65 130 48
223 70 223 54 0 -39 -324 -373 -570 -588 -249 -219 -285 -242 -590 -385 -151
-71 -333 -151 -405 -177 -71 -26 -191 -76 -265 -110 -74 -35 -186 -81 -248
-104 -148 -54 -669 -184 -847 -210 -197 -30 -272 -51 -505 -143 -249 -97 -741
-264 -1180 -399 -234 -72 -360 -116 -450 -159 -130 -61 -191 -77 -383 -99 -80
-9 -101 -17 -240 -87 -83 -42 -177 -93 -207 -113 -155 -102 -300 -283 -525
-656 -89 -147 -141 -260 -184 -402 -74 -243 -85 -365 -78 -863 7 -438 5 -491
-44 -865 -39 -298 -47 -486 -25 -578 23 -98 54 -163 93 -197 29 -26 42 -30 92
-30 63 0 120 24 196 83 22 17 35 25 28 17 -22 -29 -43 -188 -73 -560 -40 -501
-53 -595 -101 -767 -77 -274 -80 -425 -10 -463 14 -7 1398 -10 4345 -10 l4326
0 0 58 c0 70 -40 160 -135 302 -89 133 -137 176 -300 265 -77 43 -158 91 -180
106 -22 16 -65 47 -95 69 -30 22 -104 60 -165 86 -60 25 -166 72 -235 105 -84
39 -168 70 -255 92 l-130 34 -13 59 c-8 32 -33 174 -57 315 l-43 256 69 279
c87 357 140 604 234 1089 91 477 104 559 115 751 10 177 12 182 115 304 39 47
108 131 154 188 l82 103 -7 267 c-7 285 -1 429 21 459 13 17 17 16 78 -15 130
-69 144 -34 102 261 -45 319 -38 410 31 423 87 16 91 138 29 783 -29 300 -31
361 -11 361 8 0 37 -14 64 -31 28 -17 58 -29 69 -27 34 6 45 70 40 228 -4 145
-4 145 -65 335 -96 297 -114 396 -146 775 -49 577 -56 911 -21 1033 28 102 56
269 62 378 8 149 -11 177 -86 125 -57 -39 -86 -42 -115 -13 -34 35 -46 84 -53
225 l-6 122 -61 19 c-98 30 -127 32 -164 14z m-4107 -5893 c171 -16 249 -36
353 -92 106 -56 168 -72 352 -88 318 -28 473 -90 790 -315 203 -144 291 -194
357 -201 29 -4 93 2 163 15 151 28 174 27 199 -5 39 -50 46 -120 46 -469 -1
-354 -10 -475 -50 -635 -51 -204 -181 -583 -243 -710 l-47 -95 0 -115 c0 -111
2 -119 48 -249 58 -165 68 -239 39 -303 -18 -42 -25 -47 -89 -72 -38 -14 -111
-53 -162 -87 -117 -75 -171 -103 -245 -124 -86 -25 -129 -17 -217 42 -106 71
-125 77 -218 69 -99 -9 -106 -5 -241 113 -103 90 -142 115 -192 126 -54 11
-94 61 -189 238 -185 344 -239 420 -362 511 -212 157 -246 257 -167 485 22 63
47 162 56 219 9 57 33 160 55 228 83 266 89 380 26 482 -94 153 -159 319 -190
487 -8 45 -37 133 -66 203 -62 146 -75 233 -44 292 32 62 55 67 238 50z m3101
-1075 c18 -14 45 -50 60 -81 23 -47 27 -69 27 -133 0 -136 -125 -698 -239
-1076 -46 -154 -58 -207 -62 -282 -4 -83 -2 -96 22 -145 15 -29 44 -78 66
-108 59 -82 93 -172 94 -250 l1 -65 -53 -17 c-31 -11 -111 -22 -195 -27 -78
-6 -158 -15 -177 -20 -53 -17 -78 -13 -91 12 -25 46 -69 245 -75 337 -11 167
52 417 236 945 62 176 152 440 201 588 90 273 121 347 141 347 6 0 26 -11 44
-25z m-5680 -307 c-4 -35 -16 -101 -26 -148 -10 -47 -28 -150 -38 -230 -13
-94 -25 -147 -33 -153 -47 -27 -264 -144 -267 -142 -1 1 33 58 76 126 112 175
169 284 195 375 22 73 87 233 96 234 2 0 0 -28 -3 -62z m1448 -132 c60 -58
283 -353 309 -408 23 -48 22 -124 -4 -306 -33 -237 -20 -273 141 -378 249
-161 485 -407 698 -727 100 -150 192 -300 192 -314 0 -17 -44 -52 -93 -73 -27
-12 -125 -37 -219 -56 -93 -18 -206 -45 -249 -59 -44 -14 -102 -25 -130 -25
l-49 0 1 53 c0 28 4 79 8 112 11 84 4 95 -68 95 -71 0 -189 -33 -353 -99 -301
-121 -639 -186 -1098 -211 -254 -14 -300 -25 -479 -118 -168 -86 -274 -132
-306 -132 -14 0 -36 15 -54 36 -59 66 -181 341 -181 405 0 52 76 408 103 482
53 144 166 296 297 398 396 309 744 620 902 807 118 140 176 198 309 313 120
103 192 183 217 241 15 37 41 28 106 -36z"/>
</g>
</svg>
